<mxfile host="app.diagrams.net" modified="2023-05-12T02:58:52.037Z" agent="Mozilla/5.0 (Windows NT 10.0; Win64; x64) AppleWebKit/537.36 (KHTML, like Gecko) Chrome/113.0.0.0 Safari/537.36" version="21.2.9" etag="Fy0wILPKmR5ar46vB9FL" type="github">
  <diagram name="第 1 页" id="6vY9Q-uN2uFmaiIbR_YL">
    <mxGraphModel>
      <root>
        <mxCell id="0" />
        <mxCell id="1" parent="0" />
      </root>
    </mxGraphModel>
  </diagram>
</mxfile>
